# AST/ASF file generated using VICON BodyLanguage
# -----------------------------------------------
:version 1.10
:name VICON
:units
  mass 1.0
  length 0.45
  angle deg
:documentation
   .ast/.asf automatically generated from VICON data using
   VICON BodyBuilder and BodyLanguage model FoxedUp or BRILLIANT.MOD
:root
   order TX TY TZ RX RY RZ
   axis XYZ
   position 0 0 0  
   orientation 0 0 0 
:bonedata
  begin
     id 1 
     name lhipjoint
     direction 0.645893 -0.654526 0.392961 
     length 2.38111 
     axis 0 0 0  XYZ
  end
  begin
     id 2 
     name lfemur
     direction 0.34202 -0.939693 0  
     length 6.6822  
     axis 0 0 20  XYZ
    dof rx ry rz
    limits (-160.0 20.0)
           (-70.0 70.0)
           (-60.0 70.0)
  end
  begin
     id 3 
     name ltibia
     direction 0.34202 -0.939693 0   
     length 6.93904   
     axis 0 0 20   XYZ
    dof rx
    limits (-10.0 170.0)
  end
  begin
     id 4 
     name lfoot
     direction 0.0694967 -0.190941 0.979138   
     length 2.13616   
     axis -90 7.62852e-016 20   XYZ
    dof rx rz
    limits (-45.0 90.0)
           (-70.0 20.0)
  end
  begin
     id 5 
     name ltoes
     direction 1.535e-011 -4.2202e-011 1   
     length 1.07536   
     axis -90 7.62852e-016 20   XYZ
    dof rx
    limits (-90.0 20.0)
  end
  begin
     id 6 
     name rhipjoint
     direction -0.700219 -0.612087 0.367481   
     length 2.54621  
     axis 0 0 0  XYZ 
  end
  begin
     id 7 
     name rfemur
     direction -0.34202 -0.939693 0   
     length 6.55353   
     axis 0 0 -20   XYZ
    dof rx ry rz
    limits (-160.0 20.0)
           (-70.0 70.0)
           (-70.0 60.0)
  end
  begin
     id 8 
     name rtibia
     direction -0.34202 -0.939693 0   
     length 6.8736   
     axis 0 0 -20   XYZ
    dof rx
    limits (-10.0 170.0)
 end
 begin
     id 9 
     name rfoot
     direction -0.0679995 -0.186827 0.980037   
     length 2.1218  
     axis -90 -7.62852e-016 -20   XYZ
    dof rx rz
    limits (-45.0 90.0)
           (-20.0 70.0)
  end
  begin
     id 10 
     name rtoes
     direction -1.53589e-011 -4.21772e-011 1   
     length 1.06864   
     axis -90 -7.62852e-016 -20   XYZ
    dof rx
    limits (-90.0 20.0)
  end
  begin
     id 11 
     name lowerback
     direction -0.0416607 0.996347 -0.0745409   
     length 2.12205   
     axis 0 0 0   XYZ
    dof rx ry rz
    limits (-20.0 45.0)
           (-30.0 30.0)
           (-30.0 30.0)
  end
  begin
     id 12 
     name upperback
     direction -0.000153993 0.999276 -0.0380568   
     length 2.12759   
     axis 0 0 0   XYZ
    dof rx ry rz
    limits (-20.0 45.0)
           (-30.0 30.0)
           (-30.0 30.0)
  end
  begin
     id 13 
     name thorax
     direction 0.0187671 0.999821 -0.00241421   
     length 2.13704   
     axis 0 0 0   XYZ
    dof rx ry rz
    limits (-20.0 45.0)
           (-30.0 30.0)
           (-30.0 30.0)
  end
  begin
     id 14 
     name lowerneck
     direction 0.0268157 0.964865 0.261374   
     length 1.65253   
     axis 0 0 0   XYZ
    dof rx ry rz
    limits (-20.0 45.0)
           (-30.0 30.0)
           (-30.0 30.0)
  end
  begin
     id 15 
     name upperneck
     direction 0.00263774 0.939908 -0.341418   
     length 1.72375   
     axis 0 0 0   XYZ
    dof rx ry rz
    limits (-20.0 45.0)
           (-30.0 30.0)
           (-30.0 30.0)
  end
  begin
     id 16
     name head
     direction -0.00526001 0.989001 -0.147818  
     length 1.74878  
     axis 0 0 0   XYZ
    dof rx ry rz
    limits (-20.0 45.0)
           (-30.0 30.0)
           (-30.0 30.0)
  end
  begin
     id 17 
     name lclavicle
     direction 0.881214 0.461162 -0.103884  
     length 3.25108  
     axis 0 0 0   XYZ
    dof ry rz
    limits (-20.0 10.0)
           (0.0 20.0)
  end
  begin
     id 18 
     name lhumerus
     direction 1 -4.4899e-011 3.38092e-027   
     length 4.87408   
     axis 180 -30 -90   XYZ
    dof rx ry rz
    limits (-60.0 90.0)
           (-90.0 90.0)
           (-90.0 90.0)
  end
  begin
     id 19
     name lradius
     direction 1 -4.48931e-011 9.96288e-027   
     length 2.76729   
     axis 180 -30 -90   XYZ
    dof rx
    limits (-10.0 170.0)
  end
  begin
     id 20
     name lwrist
     direction 1 -4.4896e-011 1.50617e-026   
     length 1.38364   
     axis -9.31234e-015 90 90   XYZ
    dof ry
    limits (-180.0 0.0)
 end
  begin
     id 21 
     name lhand
     direction 1 -4.49038e-011 3.01286e-026   
     length 0.98922   
     axis -1.92217e-014 90 90   XYZ
    dof rx rz
    limits (-90.0 90.0)
           (-45.0 45.0)
  end
  begin
     id 22 
     name lfingers
     direction 1 -4.49051e-011 6.02588e-026   
     length 0.797535   
     axis -3.84436e-014 90 90   XYZ
    dof rx
    limits (0.0 90.0)
  end
  begin
     id 23
     name lthumb
     direction 0.707107 -6.34901e-011 0.707107   
     length 1.14511   
     axis -90 45 2.19363e-014   XYZ
    dof rx rz
    limits (-45.0 45.0)
           (-45.0 45.0)
  end
  begin
     id 24 
     name rclavicle
     direction -0.893894 0.441652 -0.0767889   
     length 3.29361  
     axis 0 0 0   XYZ 
    dof ry rz
    limits (-10.0 20.0)
           (-20.0 0.0)
  end
  begin
     id 25 
     name rhumerus
     direction -1 -4.48945e-011 8.0491e-028  
     length 4.71404   
     axis 180 30 90   XYZ
    dof rx ry rz
    limits (-90.0 60.0)
           (-90.0 90.0)
           (-90.0 90.0)
  end
  begin
     id 26 
     name rradius
     direction -1 -4.48986e-011 9.27795e-027   
     length 2.83468   
     axis 180 30 90   XYZ
    dof rx
    limits (-10.0 170.0)
  end
  begin
     id 27 
     name rwrist
     direction -1 -4.49029e-011 1.5064e-026   
     length 1.41734   
     axis -9.31234e-015 -90 -90   XYZ
    dof ry
    limits (-180.0 0.0)
  end
  begin
     id 28
     name rhand
     direction -1 -4.48857e-011 3.01165e-026   
     length 0.868195   
     axis -1.92217e-014 -90 -90   XYZ
    dof rx rz
    limits (-90.0 90.0)
           (-45.0 45.0)
  end
  begin
     id 29
     name rfingers
     direction -1 -4.49048e-011 6.02585e-026   
     length 0.699961   
     axis -3.84436e-014 -90 -90   XYZ
    dof rx
    limits (0.0 90.0)
  end
  begin
     id 30
     name rthumb
     direction -0.707107 -6.34854e-011 0.707107   
     length 1.00501   
     axis -90 -45 -2.19363e-014   XYZ
    dof rx rz
    limits (-45.0 45.0)
           (-45.0 45.0)
  end
:hierarchy
  begin
    root lhipjoint rhipjoint lowerback
    lhipjoint lfemur
    lfemur ltibia
    ltibia lfoot
    lfoot ltoes
    rhipjoint rfemur
    rfemur rtibia
    rtibia rfoot
    rfoot rtoes
    lowerback upperback
    upperback thorax
    thorax lowerneck lclavicle rclavicle
    lowerneck upperneck
    upperneck head
    lclavicle lhumerus
    lhumerus lradius
    lradius lwrist
    lwrist lhand lthumb
    lhand lfingers
    rclavicle rhumerus
    rhumerus rradius
    rradius rwrist
    rwrist rhand rthumb
    rhand rfingers
  end

#!OML:ASF H:\ManfredObstacles\Project 1\Capture day 2\Session 1\male.ASF
:FULLY-SPECIFIED
:DEGREES
98
root 1.35291 15.5046 -4.7294 -174.923 11.7272 178.975
lowerback -4.70264 4.86582 -2.31513
upperback 0.142383 6.81201 -3.07094
thorax 2.88054 3.42689 -1.38222
lowerneck -33.9614 0.955308 1.97371
upperneck 37.7893 -2.38968 1.78161
head 20.8578 -0.852902 -0.280616
rclavicle -2.38542e-015 2.14687e-014
rhumerus -30.8204 11.0354 -95.8694
rradius 74.5621
rwrist 17.0454
rhand -5.45545 -2.8124
rfingers 7.12502
rthumb 20.3558 -31.7656
lclavicle -2.38542e-015 2.14687e-014
lhumerus -123.006 34.907 -67.7969
lradius 16.1663
lwrist -156.889
lhand -2.67819 5.52379
lfingers 7.12502
lthumb 23.0228 34.1687
rfemur 14.1038 5.76726 19.2382
rtibia 34.1935
rfoot 19.1148 -6.24664
rtoes -20.3643
lfemur -34.0008 0.165273 -21.4468
ltibia 37.6627
lfoot 9.09484 18.6016
ltoes 2.99328
99
root 1.34036 15.4679 -4.96584 -175.307 11.7298 178.123
lowerback -4.47539 4.77462 -3.12175
upperback 0.252741 6.76435 -3.34557
thorax 2.80963 3.40534 -1.24225
lowerneck -34.0589 0.889228 1.81774
upperneck 37.652 -2.48631 2.03985
head 20.804 -0.863202 -0.143799
rclavicle 1.00386e-013 1.27222e-014
rhumerus -31.1595 10.2523 -96.0375
rradius 73.7505
rwrist 17.4478
rhand -5.71406 -3.15505
rfingers 7.12502
rthumb 20.1072 -32.1345
lclavicle 1.00386e-013 1.27222e-014
lhumerus -125.144 33.9968 -70.6413
lradius 16.6902
lwrist -159.32
lhand -3.28619 6.01208
lfingers 7.12502
lthumb 22.4393 34.7286
rfemur 12.6958 5.76923 18.1094
rtibia 38.0907
rfoot 19.936 -6.154
rtoes -18.9674
lfemur -33.2285 0.157664 -22.6628
ltibia 38.5543
lfoot 7.56386 19.7004
ltoes 3.43894
100
root 1.33214 15.44 -5.19125 -175.683 11.7468 177.289
lowerback -4.22789 4.69413 -3.92537
upperback 0.38501 6.73226 -3.62857
thorax 2.75307 3.39312 -1.11245
lowerneck -34.172 0.807753 1.64031
upperneck 37.5002 -2.59685 2.31348
head 20.7467 -0.878202 0.000673747
rclavicle -1.30701e-014 -1.82882e-014
rhumerus -31.5031 9.32893 -96.1849
rradius 72.6973
rwrist 17.8294
rhand -6.07299 -3.5079
rfingers 7.12502
rthumb 19.7622 -32.5233
lclavicle -1.30701e-014 -1.82882e-014
lhumerus -126.724 33.6119 -72.3803
lradius 17.0174
lwrist -160.778
lhand -3.79299 6.44606
lfingers 7.12502
lthumb 21.9527 35.2204
rfemur 11.1389 5.78029 17.0435
rtibia 42.0067
rfoot 20.5993 -6.50887
rtoes -17.8766
lfemur -32.4135 0.423181 -23.8668
ltibia 39.2598
lfoot 6.08984 20.3998
ltoes 3.54729
101
root 1.32698 15.4204 -5.40756 -176.018 11.7568 176.574
lowerback -3.99687 4.62035 -4.60349
upperback 0.533552 6.70177 -3.89089
thorax 2.73548 3.38262 -1.02755
lowerneck -34.285 0.721501 1.46737
upperneck 37.3199 -2.69446 2.55734
head 20.6708 -0.890741 0.132603
rclavicle -2.44505e-014 3.10104e-014
rhumerus -31.8435 8.29706 -96.2939
rradius 71.405
rwrist 18.1422
rhand -6.48684 -3.84397
rfingers 7.12502
rthumb 19.3643 -32.8998
lclavicle -2.44505e-014 3.10104e-014
lhumerus -127.708 33.8375 -72.9541
lradius 17.103
lwrist -161.112
lhand -4.18079 6.8292
lfingers 7.12502
lthumb 21.5803 35.6468
rfemur 9.46679 5.7825 16.1502
rtibia 45.8447
rfoot 20.9868 -7.37845
rtoes -17.113
lfemur -31.5929 0.865143 -24.9323
ltibia 39.8286
lfoot 4.71723 20.8022
ltoes 3.3834
102
root 1.32307 15.4086 -5.61655 -176.278 11.7464 176.048
lowerback -3.80556 4.54556 -5.08394
upperback 0.683117 6.65577 -4.10529
thorax 2.75837 3.36417 -0.998227
lowerneck -34.3761 0.65786 1.32177
upperneck 37.1547 -2.75071 2.74627
head 20.5971 -0.893622 0.241952
rclavicle 1.72943e-014 7.39479e-014
rhumerus -32.1996 7.17328 -96.3437
rradius 69.9083
rwrist 18.4673
rhand -6.84666 -4.15288
rfingers 7.12502
rthumb 19.0183 -33.2431
lclavicle 1.72943e-014 7.39479e-014
lhumerus -128.013 34.721 -72.2723
lradius 16.9271
lwrist -160.176
lhand -4.45416 7.14667
lfingers 7.12502
lthumb 21.3178 35.9942
rfemur 7.69395 5.76199 15.4953
rtibia 49.5288
rfoot 21.0541 -8.72927
rtoes -16.4454
lfemur -30.7948 1.37663 -25.7745
ltibia 40.2944
lfoot 3.47047 21.0266
ltoes 3.00719
